<svg width="118" height="54" viewBox="0 0 118 54" fill="none" xmlns="http://www.w3.org/2000/svg">
<path fill-rule="evenodd" clip-rule="evenodd" d="M99.8747 30.7656C99.9374 30.7737 99.9999 30.7835 100.062 30.795C100.284 30.6311 100.525 30.4872 100.783 30.3646C100.757 30.1817 100.753 29.9962 100.776 29.8105C100.937 28.4727 102.351 27.6453 103.934 27.9625C104.512 28.0785 105.032 28.3311 105.452 28.6696C106.094 28.2055 106.857 28.0038 107.641 28.1611C108.859 28.4051 109.825 29.4509 110.268 30.8169C111.335 31.0821 112.197 31.9683 112.66 33.1376C112.699 33.1439 112.738 33.1506 112.777 33.1583C114.36 33.4757 115.513 34.8176 115.351 36.1555C115.191 37.4884 113.787 38.3142 112.211 38.0067C111.467 39.1228 110.307 39.7333 109.096 39.4905C109.006 39.4725 108.917 39.4487 108.829 39.4218C108.247 40.0485 107.261 40.3517 106.198 40.1387C105.309 39.9604 104.556 39.4588 104.095 38.8162C103.798 38.8012 103.494 38.7638 103.188 38.7022C102.46 38.5563 101.782 38.2894 101.182 37.9331C100.622 38.2242 99.977 38.3523 99.3026 38.2666C97.383 38.0232 95.9551 36.1466 96.1131 34.0752C96.2711 32.0038 97.9551 30.522 99.8747 30.7656Z" fill="#9ED6E8"/>
<path fill-rule="evenodd" clip-rule="evenodd" d="M101.181 37.7649C101.212 37.7649 101.243 37.7732 101.271 37.7898C101.873 38.1473 102.53 38.399 103.221 38.5375C103.514 38.5962 103.81 38.6334 104.102 38.6484C104.156 38.651 104.205 38.6777 104.235 38.7202C104.69 39.3539 105.418 39.8107 106.232 39.9739C107.193 40.1665 108.139 39.9119 108.699 39.3092C108.744 39.2603 108.815 39.2415 108.88 39.2614C108.972 39.2897 109.054 39.3107 109.129 39.3258C110.231 39.5462 111.328 39.0195 112.064 37.9153C112.102 37.8573 112.174 37.8285 112.243 37.8419C113.029 37.9954 113.805 37.8542 114.372 37.4547C114.828 37.1338 115.114 36.6656 115.177 36.1359C115.328 34.8846 114.235 33.6228 112.74 33.3231C112.703 33.3157 112.666 33.3095 112.629 33.3035C112.569 33.2933 112.519 33.2533 112.497 33.1981C112.035 32.0327 111.206 31.224 110.223 30.9799C110.165 30.9654 110.119 30.9229 110.101 30.8675C109.658 29.5004 108.725 28.5502 107.605 28.3259C106.894 28.1834 106.184 28.3489 105.554 28.8047C105.489 28.8509 105.401 28.8488 105.339 28.7991C104.926 28.466 104.427 28.2337 103.897 28.1273C103.108 27.9692 102.328 28.1079 101.757 28.508C101.298 28.8292 101.01 29.2987 100.946 29.8302C100.926 29.9961 100.929 30.1682 100.953 30.3418C100.963 30.4138 100.925 30.4837 100.858 30.5157C100.61 30.6336 100.377 30.7729 100.165 30.9288C100.126 30.9578 100.076 30.9688 100.027 30.9603C99.969 30.9493 99.91 30.94 99.8503 30.9325C99.0351 30.8292 98.2284 31.0548 97.5785 31.5682C96.8332 32.157 96.3616 33.0752 96.2843 34.0877C96.1333 36.0681 97.4966 37.868 99.3234 38.1001C99.9374 38.1776 100.552 38.0689 101.099 37.7848C101.124 37.7715 101.152 37.7649 101.181 37.7649ZM106.861 40.3733C106.631 40.3733 106.397 40.3505 106.162 40.3033C105.29 40.1288 104.507 39.6483 104 38.9794C103.718 38.9611 103.432 38.9236 103.151 38.8669C102.452 38.7269 101.788 38.4778 101.174 38.1255C100.586 38.4101 99.9325 38.5165 99.2786 38.4336C97.2723 38.1789 95.7741 36.2182 95.9385 34.0628C96.0226 32.9585 96.5407 31.9541 97.3595 31.3073C98.0842 30.7347 98.9845 30.4832 99.8955 30.5988C99.9361 30.6039 99.9766 30.6099 100.017 30.6165C100.197 30.4881 100.391 30.371 100.596 30.2675C100.581 30.1065 100.583 29.9467 100.602 29.7912C100.677 29.1649 101.015 28.6122 101.554 28.2352C102.203 27.78 103.083 27.6206 103.968 27.7979C104.509 27.9065 105.021 28.1341 105.456 28.4589C106.141 28.0021 106.905 27.842 107.675 27.9965C108.895 28.2409 109.909 29.2406 110.403 30.6788C111.429 30.9691 112.289 31.8035 112.784 32.9886C112.793 32.9903 112.801 32.992 112.81 32.9936C114.477 33.3278 115.693 34.7549 115.522 36.175C115.447 36.7989 115.111 37.3501 114.575 37.7271C113.958 38.1615 113.131 38.3285 112.29 38.1922C111.474 39.3528 110.274 39.8986 109.059 39.6554C109.002 39.6439 108.943 39.6299 108.88 39.6127C108.378 40.104 107.647 40.3733 106.861 40.3733Z" fill="#1A1919"/>
<path fill-rule="evenodd" clip-rule="evenodd" d="M12.3581 34.0634L15.687 12.4518H22.478V42.8906H17.8619V21.0617L14.4887 42.8906H9.87273L6.23313 21.3661V42.8906H1.97211V12.4518H8.76295L12.3581 34.0634Z" fill="#2967A0"/>
<path fill-rule="evenodd" clip-rule="evenodd" d="M41.7074 30.0724V42.8906H37.3132V25.1928H43.4383L48.4539 35.7861V21.7022H52.8036V42.8906H47.788L41.7074 30.0724Z" fill="#2967A0"/>
<path fill-rule="evenodd" clip-rule="evenodd" d="M73.5232 41.1135H68.983V10.973H73.5232V28.7773H79.6875V10.973H84.3102V41.1135H79.6875V33.0831H73.5232V41.1135Z" fill="#2967A0"/>
<path fill-rule="evenodd" clip-rule="evenodd" d="M85.7148 14.2353L109.194 14.1148L107.035 15.628H100.161V44.2552H95.5651V15.628H85.7148V14.2353Z" fill="#2967A0"/>
<path fill-rule="evenodd" clip-rule="evenodd" d="M29.7579 38.3356C29.7579 38.9189 29.6764 39.0024 29.3492 39.0024C28.9404 39.0024 28.8584 38.9607 28.8584 38.3356V16.7033C28.8584 16.1615 28.9404 16.1197 29.3492 16.1197C29.6764 16.1197 29.7579 16.1615 29.7579 16.7033V38.3356ZM29.3297 12.4518C26.5799 12.4518 24.7755 13.7439 24.7755 16.4532V38.9189C24.7755 41.9199 26.623 42.962 29.3297 42.962C32.0795 42.962 33.884 41.9199 33.884 38.9189V16.4532C33.884 13.7439 32.2084 12.4518 29.3297 12.4518Z" fill="#2967A0"/>
<path fill-rule="evenodd" clip-rule="evenodd" d="M90.5092 36.7155C90.5092 37.0988 90.4278 37.1536 90.1005 37.1536C89.6918 37.1536 89.6098 37.1262 89.6098 36.7155V22.5057C89.6098 22.1497 89.6918 22.1225 90.1005 22.1225C90.4278 22.1225 90.5092 22.1497 90.5092 22.5057V36.7155ZM90.081 18.108C87.3313 18.108 85.5267 19.0824 85.5267 21.1251V38.0648C85.5267 40.3274 87.3743 41.1132 90.081 41.1132C92.8308 41.1132 94.6354 40.3274 94.6354 38.0648V21.1251C94.6354 19.0824 92.9597 18.108 90.081 18.108Z" fill="#2967A0"/>
<path fill-rule="evenodd" clip-rule="evenodd" d="M40.3746 19.4203C40.3746 20.0274 40.2931 20.1142 39.9658 20.1142C39.5571 20.1142 39.475 20.0708 39.475 19.4203V17.0706C39.475 16.5068 39.5571 16.4635 39.9658 16.4635C40.2931 16.4635 40.3746 16.5068 40.3746 17.0706V19.4203ZM39.9247 12.6066C36.6458 12.6066 34.0887 15.0897 34.0887 18.2888C34.0887 21.4879 36.6458 23.9711 39.9247 23.9711C43.204 23.9711 45.7607 21.4879 45.7607 18.2888C45.7607 15.0897 43.204 12.6066 39.9247 12.6066Z" fill="#2967A0"/>
<path fill-rule="evenodd" clip-rule="evenodd" d="M65.3113 25.9578C64.8373 24.8723 63.9838 23.9421 63.1623 23.2185C62.372 22.5467 61.6453 21.8748 61.3608 21.3578C61.0131 20.841 60.8867 19.859 60.8867 17.4814C60.8867 16.5798 60.899 15.8955 60.9325 15.3784L60.9252 15.2816C60.9252 14.8754 60.9266 14.2388 61.2816 14.0545C61.3358 14.0176 61.3961 13.9982 61.4649 13.9982C61.4824 13.9982 61.4994 13.9996 61.516 14.0022C62.0565 14.0118 62.0571 14.8056 62.0571 15.2816V17.0238C62.0805 18.0275 62.0877 18.2954 62.0877 20.0148L66.0065 17.8222C66.0065 9.78453 64.6134 8.21372 61.1711 8.12643C57.9803 8.04549 56.1779 11.2275 56.1779 18.3084C56.1779 22.0297 56.7467 22.9944 57.442 24.235C58.074 25.4238 58.9906 26.3023 59.591 26.8193C60.2545 27.4394 60.8867 28.008 61.2028 28.5249C61.5189 29.0934 61.6453 31.2296 61.6453 33.2971C61.6453 35.7145 61.6034 36.751 61.3501 37.0811C61.2714 37.2719 61.1394 37.4067 60.9147 37.4067C60.4457 37.4067 60.355 36.8857 60.3374 36.433C60.2701 35.8067 60.2554 31.9795 60.2863 30.0513L56.2473 32.0696C56.2473 40.7011 56.1575 42.859 61.1711 42.859C64.8373 42.859 66.3226 40.1713 66.3226 32.7285C66.3226 29.5757 66.0065 27.5601 65.3113 25.9578Z" fill="#2967A0"/>
<path fill-rule="evenodd" clip-rule="evenodd" d="M10.56 34.1498L13.8891 12.7501H20.6799V42.8905H16.0639V21.2755L12.6906 42.8905H8.07463L4.43503 21.5769V42.8905H0.174011V12.7501H6.965L10.56 34.1498Z" fill="#FFFCE8"/>
<path fill-rule="evenodd" clip-rule="evenodd" d="M16.2366 42.7224H20.506V12.9183H14.0376L10.731 34.1749C10.7184 34.2568 10.646 34.3176 10.5607 34.3181C10.5602 34.3181 10.5599 34.3181 10.5595 34.3181C10.4746 34.3181 10.4021 34.2584 10.3884 34.1769L6.81697 12.9183H0.346884V42.7224H4.26108V21.577C4.26108 21.4895 4.33039 21.4166 4.42037 21.4094C4.50919 21.402 4.59087 21.4631 4.60558 21.5495L8.22115 42.7224H12.541L15.8919 21.2505C15.9055 21.1635 15.9864 21.1012 16.0763 21.108C16.1668 21.1145 16.2366 21.1876 16.2366 21.2756V42.7224ZM20.6794 43.0587H16.0634C15.9674 43.0587 15.89 42.9836 15.89 42.8906V23.5103L12.8615 42.9158C12.8486 42.998 12.7757 43.0587 12.6901 43.0587H8.07409C7.98921 43.0587 7.91699 42.9994 7.90301 42.918L4.60791 23.6216V42.8906C4.60791 42.9836 4.5303 43.0587 4.43449 43.0587H0.173472C0.0776668 43.0587 6.10352e-05 42.9836 6.10352e-05 42.8906V12.7502C6.10352e-05 12.6572 0.0776668 12.582 0.173472 12.582H6.96446C7.0495 12.582 7.12186 12.6417 7.13554 12.7231L10.553 33.065L13.717 12.725C13.7298 12.6428 13.8028 12.582 13.8885 12.582H20.6794C20.7752 12.582 20.8528 12.6572 20.8528 12.7502V42.8906C20.8528 42.9836 20.7752 43.0587 20.6794 43.0587Z" fill="#1A1919"/>
<path fill-rule="evenodd" clip-rule="evenodd" d="M40.0876 30.0724V42.8906H35.6934V25.1928H41.8185L46.834 35.7861V21.7022H51.1839V42.8906H46.1682L40.0876 30.0724Z" fill="#FFFCE8"/>
<path fill-rule="evenodd" clip-rule="evenodd" d="M46.2786 42.7222H51.0096V21.8703H47.0066V35.786C47.0066 35.8651 46.9498 35.9335 46.8703 35.9504C46.7907 35.9675 46.7097 35.9281 46.6758 35.8562L41.7067 25.3609H35.8661V42.7222H39.9134V30.0722C39.9134 29.9933 39.9701 29.9249 40.0498 29.908C40.1293 29.891 40.2102 29.9302 40.2445 30.0019L46.2786 42.7222ZM51.1832 43.0586H46.1675C46.1 43.0586 46.0384 43.0204 46.01 42.9608L40.2602 30.8402V42.8905C40.2602 42.9834 40.1827 43.0586 40.0869 43.0586H35.6927C35.597 43.0586 35.5194 42.9834 35.5194 42.8905V25.1927C35.5194 25.0998 35.597 25.0245 35.6927 25.0245H41.8178C41.8855 25.0245 41.9471 25.0628 41.9754 25.1225L46.6599 35.0168V21.7021C46.6599 21.6091 46.7374 21.5338 46.8334 21.5338H51.1832C51.2789 21.5338 51.3565 21.6091 51.3565 21.7021V42.8905C51.3565 42.9834 51.2789 43.0586 51.1832 43.0586Z" fill="#1A1919"/>
<path fill-rule="evenodd" clip-rule="evenodd" d="M71.7252 42.8588H67.1849V12.7183H71.7252V30.5225H77.8894V12.7183H82.5122V42.8588H77.8894V34.8285H71.7252V42.8588Z" fill="#FFFDEE"/>
<path fill-rule="evenodd" clip-rule="evenodd" d="M78.0612 42.6903H82.337V12.8863H78.0612V30.5222C78.0612 30.615 77.9836 30.6906 77.8878 30.6906H71.7236C71.6278 30.6906 71.5502 30.615 71.5502 30.5222V12.8863H67.3567V42.6903H71.5502V34.8283C71.5502 34.7354 71.6278 34.66 71.7236 34.66H77.8878C77.9836 34.66 78.0612 34.7354 78.0612 34.8283V42.6903ZM82.5106 43.0268H77.8878C77.792 43.0268 77.7143 42.9513 77.7143 42.8584V34.9964H71.897V42.8584C71.897 42.9513 71.8192 43.0268 71.7236 43.0268H67.1833C67.0875 43.0268 67.0099 42.9513 67.0099 42.8584V12.718C67.0099 12.6252 67.0875 12.5499 67.1833 12.5499H71.7236C71.8192 12.5499 71.897 12.6252 71.897 12.718V30.3542H77.7143V12.718C77.7143 12.6252 77.792 12.5499 77.8878 12.5499H82.5106C82.6063 12.5499 82.6839 12.6252 82.6839 12.718V42.8584C82.6839 42.9513 82.6063 43.0268 82.5106 43.0268Z" fill="#1A1919"/>
<path fill-rule="evenodd" clip-rule="evenodd" d="M85.6246 9.92532H109.013V14.231H102.14V42.8584H97.5438V14.231H85.6246V9.92532Z" fill="#FFFCE8"/>
<path fill-rule="evenodd" clip-rule="evenodd" d="M97.7178 42.6909H101.967V14.2319C101.967 14.139 102.045 14.0637 102.14 14.0637H108.841V10.0944H85.7986V14.0637H97.5444C97.6402 14.0637 97.7178 14.139 97.7178 14.2319V42.6909ZM102.14 43.0274H97.5444C97.4487 43.0274 97.371 42.952 97.371 42.859V14.4001H85.6252C85.5294 14.4001 85.4518 14.3249 85.4518 14.2319V9.92613C85.4518 9.83319 85.5294 9.75805 85.6252 9.75805H109.014C109.11 9.75805 109.188 9.83319 109.188 9.92613V14.2319C109.188 14.3249 109.11 14.4001 109.014 14.4001H102.314V42.859C102.314 42.952 102.236 43.0274 102.14 43.0274Z" fill="#1A1919"/>
<path fill-rule="evenodd" clip-rule="evenodd" d="M28.4981 38.3356C28.4981 38.9189 28.4164 39.0024 28.0892 39.0024C27.6805 39.0024 27.5984 38.9607 27.5984 38.3356V16.7033C27.5984 16.1615 27.6805 16.1197 28.0892 16.1197C28.4164 16.1197 28.4981 16.1615 28.4981 16.7033V38.3356ZM28.0698 12.4518C25.32 12.4518 23.5154 13.7439 23.5154 16.4532V38.9189C23.5154 41.9199 25.3631 42.962 28.0698 42.962C30.8195 42.962 32.6241 41.9199 32.6241 38.9189V16.4532C32.6241 13.7439 30.9484 12.4518 28.0698 12.4518Z" fill="#FFFCE8"/>
<path fill-rule="evenodd" clip-rule="evenodd" d="M28.0887 16.2876C27.7715 16.2876 27.7715 16.2876 27.7715 16.7031V38.3351C27.7715 38.8339 27.7715 38.8339 28.0887 38.8339C28.2929 38.8339 28.3242 38.8339 28.3242 38.3351V16.7031C28.3242 16.2876 28.3242 16.2876 28.0887 16.2876ZM28.0887 39.1703C27.5162 39.1703 27.4246 38.972 27.4246 38.3351V16.7031C27.4246 16.0988 27.5548 15.9512 28.0887 15.9512C28.5831 15.9512 28.6709 16.1482 28.6709 16.7031V38.3351C28.6709 38.9126 28.5868 39.1703 28.0887 39.1703ZM28.0694 12.6197C25.2441 12.6197 23.6884 13.9811 23.6884 16.4529V38.9186C23.6884 41.5261 25.1214 42.7935 28.0694 42.7935C31.0581 42.7935 32.4502 41.5622 32.4502 38.9186V16.4529C32.4502 13.9095 30.9763 12.6197 28.0694 12.6197ZM28.0694 43.1299C24.9322 43.1299 23.3416 41.7131 23.3416 38.9186V16.4529C23.3416 13.8031 25.0647 12.2834 28.0694 12.2834C31.1622 12.2834 32.797 13.7251 32.797 16.4529V38.9186C32.797 41.7523 31.2506 43.1299 28.0694 43.1299Z" fill="#1A1919"/>
<path fill-rule="evenodd" clip-rule="evenodd" d="M90.5092 38.4606C90.5092 38.8439 90.4278 38.8987 90.1005 38.8987C89.6918 38.8987 89.6098 38.8713 89.6098 38.4606V24.2508C89.6098 23.8948 89.6918 23.8674 90.1005 23.8674C90.4278 23.8674 90.5092 23.8948 90.5092 24.2508V38.4606ZM90.081 19.8531C87.3313 19.8531 85.5267 20.8275 85.5267 22.8701V39.8098C85.5267 42.0725 87.3743 42.8583 90.081 42.8583C92.8308 42.8583 94.6354 42.0725 94.6354 39.8098V22.8701C94.6354 20.8275 92.9597 19.8531 90.081 19.8531Z" fill="#FFFCE8"/>
<path fill-rule="evenodd" clip-rule="evenodd" d="M90.0989 24.0363C90.0271 24.0363 89.8364 24.0363 89.8034 24.0617C89.8002 24.0655 89.7815 24.0968 89.7815 24.2516V38.4614C89.7815 38.6749 89.8086 38.703 89.8117 38.7054C89.8434 38.7314 90.029 38.7314 90.0989 38.7314C90.3344 38.7314 90.3344 38.7314 90.3344 38.4614V24.2516C90.3344 24.0914 90.315 24.0573 90.3111 24.0521C90.2849 24.0363 90.1449 24.0363 90.0989 24.0363ZM90.0989 39.0676C89.6474 39.0676 89.4347 39.008 89.4347 38.4614V24.2516C89.4347 23.9083 89.4795 23.7001 90.0989 23.7001C90.5015 23.7001 90.6812 23.7797 90.6812 24.2516V38.4614C90.6812 38.9204 90.5397 39.0676 90.0989 39.0676ZM90.0796 20.022C88.4433 20.022 85.6986 20.3923 85.6986 22.871V39.8106C85.6986 41.7488 87.1316 42.6909 90.0796 42.6909C93.0683 42.6909 94.4604 41.7756 94.4604 39.8106V22.871C94.4604 21.5714 93.7004 20.022 90.0796 20.022ZM90.0796 43.0273C86.9424 43.0273 85.3517 41.945 85.3517 39.8106V22.871C85.3517 20.8466 87.0749 19.6857 90.0796 19.6857C93.9871 19.6857 94.8072 21.4179 94.8072 22.871V39.8106C94.8072 41.975 93.2608 43.0273 90.0796 43.0273Z" fill="#1A1919"/>
<path fill-rule="evenodd" clip-rule="evenodd" d="M38.5764 19.4203C38.5764 20.0274 38.4947 20.1142 38.1676 20.1142C37.7588 20.1142 37.6769 20.0708 37.6769 19.4203V17.0706C37.6769 16.5068 37.7588 16.4635 38.1676 16.4635C38.4947 16.4635 38.5764 16.5068 38.5764 17.0706V19.4203ZM38.1266 12.6066C34.8476 12.6066 32.2906 15.0897 32.2906 18.2888C32.2906 21.4879 34.8476 23.9711 38.1266 23.9711C41.4056 23.9711 43.9626 21.4879 43.9626 18.2888C43.9626 15.0897 41.4056 12.6066 38.1266 12.6066Z" fill="#FFFCE8"/>
<path fill-rule="evenodd" clip-rule="evenodd" d="M38.1671 16.6317C37.8497 16.6317 37.8497 16.6317 37.8497 17.0705V19.4203C37.8497 19.9459 37.8497 19.9459 38.1671 19.9459C38.3666 19.9459 38.4025 19.9459 38.4025 19.4203V17.0705C38.4025 16.6317 38.4025 16.6317 38.1671 16.6317ZM38.1671 20.2824C37.6209 20.2824 37.503 20.1294 37.503 19.4203V17.0705C37.503 16.4475 37.6333 16.2952 38.1671 16.2952C38.6614 16.2952 38.7493 16.4984 38.7493 17.0705V19.4203C38.7493 20.0164 38.6653 20.2824 38.1671 20.2824ZM38.1262 12.7748C34.9509 12.7748 32.4636 15.1968 32.4636 18.2888C32.4636 21.3809 34.9509 23.8028 38.1262 23.8028C41.3014 23.8028 43.7886 21.3809 43.7886 18.2888C43.7886 15.1968 41.3014 12.7748 38.1262 12.7748ZM38.1262 24.1393C34.7564 24.1393 32.1168 21.5694 32.1168 18.2888C32.1168 15.0082 34.7564 12.4383 38.1262 12.4383C41.4958 12.4383 44.1354 15.0082 44.1354 18.2888C44.1354 21.5694 41.4958 24.1393 38.1262 24.1393Z" fill="#1A1919"/>
<path fill-rule="evenodd" clip-rule="evenodd" d="M63.5112 25.9578C63.0371 24.8723 62.1837 23.9421 61.3621 23.2185C60.5719 22.5467 59.8451 21.8748 59.5606 21.3578C59.213 20.841 59.0865 19.859 59.0865 17.4814C59.0865 16.5798 59.0989 15.8955 59.1322 15.3784L59.125 15.2816C59.125 14.8754 59.1264 14.2388 59.4815 14.0545C59.5356 14.0176 59.5958 13.9982 59.6647 13.9982C59.6823 13.9982 59.6992 13.9996 59.716 14.0022C60.2563 14.0118 60.2569 14.8056 60.2569 15.2816V17.0238C60.2803 18.0275 60.2874 18.2954 60.2874 20.0148L64.2063 17.8222C64.2063 9.78453 62.8133 8.21372 59.371 8.12643C56.1802 8.04549 54.3776 11.2275 54.3776 18.3084C54.3776 22.0297 54.9465 22.9944 55.6417 24.235C56.2738 25.4238 57.1904 26.3023 57.7908 26.8193C58.4545 27.4394 59.0865 28.008 59.4026 28.5249C59.7187 29.0934 59.8451 31.2296 59.8451 33.2971C59.8451 35.7145 59.8033 36.751 59.5498 37.0811C59.4712 37.2719 59.3393 37.4067 59.1145 37.4067C58.6456 37.4067 58.5548 36.8857 58.5372 36.433C58.4699 35.8067 58.4552 31.9795 58.4861 30.0513L54.4472 32.0696C54.4472 40.7011 54.3572 42.859 59.371 42.859C63.0371 42.859 64.5224 40.1713 64.5224 32.7285C64.5224 29.5757 64.2063 27.5601 63.5112 25.9578Z" fill="#FFFCE8"/>
<path fill-rule="evenodd" clip-rule="evenodd" d="M54.6201 32.1719L54.6199 32.5177C54.6192 36.6852 54.6188 39.2008 55.2226 40.7246C55.7906 42.1576 56.9146 42.6903 59.3703 42.6903C61.1893 42.6903 62.3955 41.9972 63.166 40.5088C63.9728 38.9507 64.3484 36.4784 64.3484 32.7281C64.3484 29.6398 64.0501 27.6345 63.3508 26.0227C62.9619 25.1324 62.2534 24.2308 61.245 23.3425C60.5158 22.7226 59.7262 22.0107 59.4107 21.4432C59.0385 20.8835 58.9126 19.8807 58.9126 17.481C58.9126 16.519 58.9267 15.8697 58.958 15.3788L58.9514 15.2935C58.9513 15.2894 58.9511 15.2853 58.9511 15.2812C58.9511 14.8294 58.9511 14.148 59.39 13.9107C59.4907 13.8447 59.6131 13.8187 59.7303 13.834C60.4297 13.8563 60.4297 14.7825 60.4297 15.2812L60.4312 17.0841C60.4523 17.9836 60.4594 18.2929 60.4603 19.7233L64.0323 17.7248C64.0268 13.8072 63.6849 11.4447 62.9262 10.0721C62.2541 8.85643 61.2227 8.3413 59.366 8.29426C58.3657 8.26912 57.5106 8.58453 56.8248 9.23257C55.3156 10.6588 54.5505 13.7122 54.5505 18.308C54.5505 21.9378 55.087 22.8943 55.7661 24.1055L55.7935 24.1541C56.2635 25.0379 56.9734 25.8909 57.9053 26.6929L58.077 26.8528C58.68 27.4147 59.2496 27.9455 59.5512 28.4386C59.9846 29.2179 60.018 32.354 60.018 33.2967C60.018 35.8469 59.9718 36.7831 59.702 37.1628C59.5538 37.5023 59.3013 37.5745 59.1139 37.5745C58.4076 37.5745 58.3744 36.7198 58.3634 36.439C58.298 35.8343 58.2825 32.3324 58.3082 30.3288L54.6201 32.1719ZM59.3703 43.0268C56.7747 43.0268 55.5211 42.4152 54.8989 40.8452C54.272 39.2631 54.2724 36.724 54.2733 32.5177V32.0692C54.2733 32.0062 54.3097 31.9486 54.3673 31.9198L58.4062 29.9016C58.4602 29.8744 58.525 29.8768 58.577 29.9081C58.6288 29.9392 58.6598 29.9946 58.6589 30.0536C58.6288 31.938 58.6422 35.7925 58.709 36.4153C58.738 37.1458 58.9405 37.238 59.1139 37.238C59.2048 37.238 59.3085 37.212 59.3882 37.0183C59.3939 37.0047 59.4012 36.9918 59.4102 36.9801C59.6321 36.6911 59.6711 35.5621 59.6711 33.2967C59.6711 30.9069 59.5056 29.065 59.2495 28.6043C58.9755 28.1565 58.4223 27.6411 57.8367 27.0955L57.67 26.9399C56.7111 26.1149 55.9751 25.2292 55.4871 24.3118L55.4617 24.2663C54.7589 23.0131 54.2037 22.0233 54.2037 18.308C54.2037 13.618 55.0042 10.4836 56.5827 8.9916C57.338 8.27788 58.2788 7.93027 59.375 7.95795C61.3747 8.00866 62.492 8.57506 63.2317 9.9131C64.0254 11.3485 64.3792 13.7877 64.3792 17.8218C64.3792 17.882 64.3461 17.9377 64.2925 17.9676L60.3737 20.1602C60.3199 20.1901 60.254 20.1903 60.2003 20.1601C60.1465 20.13 60.1135 20.0745 60.1135 20.0146C60.1135 18.3343 60.1069 18.0463 60.0845 17.0917L60.0829 17.0272V15.2812C60.0829 14.7467 60.0542 14.1761 59.7122 14.17C59.7041 14.1699 59.6959 14.1692 59.688 14.1679C59.6502 14.162 59.6133 14.1695 59.5809 14.1916C59.575 14.1956 59.5689 14.1993 59.5627 14.2025C59.2994 14.3391 59.2978 14.9446 59.2978 15.275L59.3047 15.3657C59.3053 15.3733 59.3053 15.3809 59.3048 15.3886C59.2734 15.8733 59.2594 16.5188 59.2594 17.481C59.2594 19.7858 59.3762 20.776 59.7052 21.2656C59.708 21.2697 59.7106 21.2739 59.7129 21.2783C60.0015 21.8022 60.8067 22.5226 61.4759 23.0917C62.5242 24.0149 63.2617 24.9563 63.6702 25.8919C63.6704 25.8919 63.6704 25.892 63.6704 25.8922C64.3888 27.5477 64.6953 29.5922 64.6953 32.7281C64.6953 40.1391 63.2023 43.0268 59.3703 43.0268Z" fill="#1A1919"/>
<path fill-rule="evenodd" clip-rule="evenodd" d="M39.2924 15.3029C39.2695 15.3029 39.2468 15.3002 39.2236 15.2941C39.0808 15.2575 38.9956 15.1157 39.0334 14.9771C39.6145 12.8431 40.3372 10.5209 41.0361 8.27512C41.8421 5.68504 42.6755 3.00671 43.3135 0.55415C43.3497 0.415112 43.4946 0.330773 43.6384 0.36586C43.7817 0.400946 43.8686 0.542163 43.8325 0.681201C43.1913 3.14531 42.3559 5.82953 41.5483 8.42505C40.8507 10.6667 40.1294 12.9845 39.5507 15.1096C39.519 15.2259 39.4108 15.3029 39.2924 15.3029Z" fill="#1A1919"/>
<mask id="mask0_10001_14290" style="mask-type:alpha" maskUnits="userSpaceOnUse" x="41" y="0" width="13" height="12">
<path d="M41.6588 0H53.6052V11.1795H41.6588V0Z" fill="white"/>
</mask>
<g mask="url(#mask0_10001_14290)">
<path fill-rule="evenodd" clip-rule="evenodd" d="M52.0324 10.7966C50.5116 11.1313 49.4093 10.7262 48.7131 10.2251C47.336 9.23401 47.4796 7.96894 46.133 7.13036C45.197 6.54718 42.9271 5.94439 41.9266 6.29569L43.5728 0.61802C44.5736 0.266938 46.4637 0.0300503 47.3998 0.613225C48.7461 1.45181 48.7313 3.12724 50.1084 4.11838C50.8045 4.61917 51.8177 4.91752 53.3381 4.58278L52.0324 10.7966Z" fill="#ADD098"/>
<path fill-rule="evenodd" clip-rule="evenodd" d="M42.6898 5.93125C43.8888 5.93125 45.508 6.43226 46.2772 6.91149C47.0192 7.37349 47.3454 7.95776 47.6612 8.52263C47.96 9.05764 48.2424 9.5628 48.8723 10.0163C49.437 10.4227 50.3974 10.8403 51.805 10.577L52.9956 4.91156C51.7805 5.10377 50.7568 4.90786 49.9488 4.32621C49.2187 3.80078 48.8619 3.11496 48.5171 2.45159C48.1873 1.81699 47.876 1.21769 47.2548 0.831081C46.4657 0.339436 44.79 0.5031 43.7922 0.818659L42.3041 5.95086C42.4261 5.93757 42.5555 5.93125 42.6898 5.93125ZM50.946 11.1789C49.8562 11.1789 49.0657 10.8017 48.5535 10.4332C47.8284 9.91126 47.4896 9.30477 47.1908 8.76976C46.8945 8.23932 46.6144 7.73809 45.9881 7.34821C45.0421 6.75894 42.8653 6.24158 42.0175 6.53927C41.9231 6.57217 41.8178 6.55147 41.7443 6.48522C41.6708 6.41897 41.6419 6.3185 41.669 6.22501L43.3152 0.547121C43.3384 0.466706 43.4006 0.401981 43.4817 0.373433C44.5517 -0.00205697 46.5193 -0.243739 47.544 0.394354C48.288 0.857668 48.6472 1.54915 48.9949 2.21776C49.3263 2.8552 49.6392 3.45711 50.2676 3.90953C51.032 4.45958 52.0449 4.60058 53.2785 4.32926C53.3677 4.30986 53.46 4.33514 53.5249 4.39682C53.5898 4.45849 53.6181 4.54784 53.5999 4.63414L52.2941 10.8477C52.2732 10.9477 52.1937 11.0264 52.0912 11.0491C51.6779 11.1399 51.2964 11.1789 50.946 11.1789Z" fill="#1A1919"/>
</g>
<path fill-rule="evenodd" clip-rule="evenodd" d="M49.9453 5.89717C49.8294 6.90835 48.8556 7.54884 47.7701 7.32808C46.6846 7.1071 45.8983 6.10834 46.0143 5.09737C46.13 4.08619 47.1038 3.4457 48.1893 3.66646C49.2748 3.88744 50.061 4.8862 49.9453 5.89717Z" fill="#F5D93B"/>
<path fill-rule="evenodd" clip-rule="evenodd" d="M47.7579 3.88194C47.4238 3.88194 47.1102 3.97652 46.8501 4.15914C46.5266 4.38644 46.323 4.72989 46.2779 5.12587C46.177 6.0063 46.8703 6.87997 47.8228 7.07393C48.2941 7.17003 48.7494 7.08504 49.1051 6.83508C49.4288 6.60778 49.6318 6.26454 49.6772 5.86835C49.7779 4.98814 49.0848 4.11425 48.1321 3.92029C48.0059 3.89458 47.8805 3.88194 47.7579 3.88194ZM48.1892 7.63008C48.0317 7.63008 47.872 7.61439 47.7129 7.58191C46.498 7.33478 45.6159 6.20744 45.7462 5.06855C45.8084 4.52526 46.089 4.05301 46.5362 3.73876C47.0084 3.40685 47.63 3.2883 48.242 3.4123C49.4568 3.65965 50.3393 4.78721 50.2087 5.92588C50.1467 6.46918 49.8661 6.94142 49.4189 7.25568C49.0693 7.50128 48.6378 7.63008 48.1892 7.63008Z" fill="#1A1919"/>
<path fill-rule="evenodd" clip-rule="evenodd" d="M47.8496 4.36326C47.84 4.34648 47.822 4.33362 47.7971 4.33362C47.7283 4.33384 47.6753 4.37001 47.6448 4.4306C47.627 4.46612 47.625 4.50404 47.6171 4.54196C47.6003 4.62172 47.5646 4.65266 47.5077 4.70889C47.4615 4.75444 47.43 4.80064 47.4293 4.86623C47.4291 4.88541 47.4376 4.9035 47.4358 4.92268C47.432 4.96299 47.4314 4.94665 47.4141 4.97694C47.3986 5.00418 47.384 5.01944 47.3788 5.05191C47.3723 5.09201 47.4037 5.11707 47.4415 5.11837C47.5178 5.12121 47.5727 5.07283 47.6019 5.00701C47.6266 4.95079 47.6252 4.89609 47.6668 4.84488C47.6942 4.8111 47.7313 4.78865 47.7542 4.75051C47.7944 4.68274 47.7537 4.59252 47.8106 4.53825C47.858 4.49249 47.9139 4.46503 47.8753 4.38919C47.8687 4.37699 47.8598 4.36849 47.8496 4.36326Z" fill="#1A1919"/>
<path fill-rule="evenodd" clip-rule="evenodd" d="M48.9853 4.88536C48.9723 4.88863 48.9629 4.89495 48.9566 4.90279C48.862 4.91369 48.8079 4.99367 48.791 5.08258C48.7766 5.15777 48.7822 5.21813 48.7304 5.28155C48.6962 5.32339 48.6567 5.36022 48.6432 5.41405C48.6362 5.44216 48.6387 5.46504 48.6378 5.49381C48.6365 5.54742 48.6178 5.58774 48.5978 5.63524C48.5843 5.6675 48.5697 5.69365 48.5814 5.73026C48.6048 5.80218 48.6964 5.8122 48.7456 5.75772C48.7798 5.7198 48.7694 5.6773 48.7829 5.63328C48.7977 5.58425 48.8454 5.55178 48.8611 5.50144C48.8746 5.4572 48.8472 5.41361 48.8676 5.37242C48.8894 5.3284 48.9435 5.3029 48.9653 5.25474C48.9851 5.21159 48.9851 5.16365 48.9954 5.11832C49.0103 5.05403 49.0678 5.04662 49.09 4.99105C49.1185 4.91957 49.052 4.86836 48.9853 4.88536Z" fill="#1A1919"/>
<path fill-rule="evenodd" clip-rule="evenodd" d="M48.1196 6.50716C47.9115 6.49277 47.6795 6.43633 47.4515 6.29925C46.9244 5.98261 46.8092 5.472 46.7861 5.32294C46.7719 5.22858 46.8389 5.14053 46.9364 5.12637C47.0334 5.11307 47.1244 5.17758 47.139 5.27194C47.1511 5.35171 47.2327 5.76076 47.6393 6.00527C48.1398 6.30579 48.685 6.09048 48.7081 6.08133C48.7989 6.04428 48.9036 6.08612 48.9415 6.17438C48.9795 6.26242 48.9364 6.36376 48.8456 6.40059C48.7971 6.4202 48.4983 6.53353 48.1196 6.50716Z" fill="#1A1919"/>
<path fill-rule="evenodd" clip-rule="evenodd" d="M40.2273 16C40.1715 16 40.1156 15.9832 40.0675 15.9486C39.8791 15.8123 39.5664 15.6376 39.1469 15.5783C38.7439 15.521 38.4056 15.594 38.1924 15.6653C38.0531 15.7121 37.9006 15.64 37.8525 15.5044C37.8045 15.3689 37.8786 15.2213 38.0186 15.1745C38.4045 15.0457 38.8214 15.0078 39.224 15.0646C39.7544 15.1396 40.1493 15.3604 40.3874 15.5325C40.5056 15.6182 40.5301 15.7805 40.442 15.8956C40.3894 15.964 40.3088 16 40.2273 16Z" fill="#1A1919"/>
<path fill-rule="evenodd" clip-rule="evenodd" d="M38.3321 15.3514C38.3206 15.3514 38.3094 15.3507 38.2979 15.3492C38.1512 15.3311 38.0477 15.2012 38.0666 15.0589C38.1627 14.3256 38.1043 13.562 37.8978 12.8505C37.8576 12.7125 37.9405 12.5691 38.0827 12.5303C38.2247 12.4917 38.3727 12.5717 38.4127 12.7097C38.6387 13.4877 38.7027 14.3228 38.5972 15.1248C38.5801 15.2557 38.4646 15.3514 38.3321 15.3514Z" fill="#1A1919"/>
<path fill-rule="evenodd" clip-rule="evenodd" d="M39.7476 15.5081C39.6989 15.5081 39.6495 15.4952 39.6052 15.468C39.4803 15.3915 39.443 15.2313 39.5216 15.1101C40.1015 14.2184 41.1296 13.7193 41.9559 13.3181C42.0884 13.2542 42.249 13.3061 42.3149 13.434C42.3809 13.5624 42.3274 13.7182 42.1954 13.7823C41.3889 14.1739 40.4744 14.6176 39.9743 15.3871C39.9233 15.4651 39.8366 15.5081 39.7476 15.5081Z" fill="#1A1919"/>
<path fill-rule="evenodd" clip-rule="evenodd" d="M43.7844 13.3876C43.8387 13.541 43.8938 13.6959 43.983 13.8332C44.0719 13.9705 44.1995 14.0904 44.3583 14.1409C44.5868 14.2133 44.8598 14.1176 44.9874 13.9204C45.0817 13.7748 45.0972 13.5924 45.0754 13.4218C45.0547 13.2585 44.9993 13.0931 44.8811 12.975C44.7119 12.8057 44.4397 12.7634 44.2031 12.8183L44.1514 12.7634C44.3053 12.7721 44.4635 12.7492 44.6014 12.6823C44.7396 12.6154 44.8562 12.5019 44.9098 12.3613C44.9761 12.187 44.9384 11.9832 44.8301 11.8298C44.7218 11.6762 44.5493 11.5711 44.3642 11.5221C44.2182 11.4835 44.0566 11.4789 43.9207 11.5439C43.6849 11.6568 43.5943 11.9414 43.5903 12.1964L43.4946 12.1896C43.4946 11.937 43.3176 11.699 43.079 11.5973C42.8406 11.4957 42.554 11.5236 42.3273 11.6481C42.2561 11.6873 42.1892 11.7361 42.14 11.7995C42.0216 11.9523 42.0258 12.175 42.1245 12.3404C42.2233 12.5058 42.4028 12.6161 42.5933 12.6645L42.7205 12.7597C42.5365 12.7601 42.3397 12.8434 42.2649 13.0064C42.2195 13.1049 42.224 13.2184 42.2449 13.3246C42.2705 13.4555 42.3213 13.5854 42.4143 13.6837C42.4927 13.7667 42.5962 13.823 42.6996 13.8742C42.8844 13.9657 43.0997 14.0474 43.2951 13.979C43.5085 13.904 43.624 13.66 43.5968 13.4412" fill="#EC86B4"/>
<path fill-rule="evenodd" clip-rule="evenodd" d="M43.7846 13.1271C43.8956 13.1271 43.9994 13.1949 44.0376 13.3023C44.0883 13.4457 44.1362 13.5813 44.2094 13.694C44.2757 13.7959 44.3581 13.8668 44.4419 13.8934C44.5529 13.9289 44.6991 13.8772 44.7611 13.7813C44.8238 13.6846 44.8225 13.549 44.8101 13.4525C44.7984 13.3601 44.7681 13.2335 44.6893 13.1546C44.6005 13.0659 44.4305 13.0315 44.2656 13.0698C44.171 13.0914 44.0717 13.0622 44.0061 12.9927L43.9542 12.9377C43.8805 12.8597 43.8632 12.7464 43.91 12.6512C43.9567 12.5555 44.0587 12.4973 44.1672 12.5034C44.2871 12.5104 44.3954 12.4914 44.4821 12.4494C44.5655 12.4088 44.6318 12.3419 44.6589 12.2704C44.6929 12.1817 44.6735 12.0658 44.6097 11.9754C44.5435 11.8814 44.4282 11.8071 44.2939 11.7716C44.1935 11.7448 44.1005 11.7465 44.0394 11.776C43.9095 11.8379 43.8608 12.0429 43.8583 12.1994C43.8572 12.2709 43.8257 12.3387 43.7714 12.3868C43.7172 12.4352 43.6442 12.4587 43.5714 12.4544L43.4755 12.4476C43.3355 12.4378 43.227 12.3249 43.227 12.1887C43.2273 12.0464 43.1199 11.8974 42.9716 11.8339C42.8184 11.7686 42.6221 11.7836 42.4592 11.8732C42.4109 11.8998 42.3752 11.9272 42.3541 11.9547C42.3058 12.017 42.3069 12.1264 42.3563 12.2094C42.4125 12.3036 42.5234 12.3774 42.6614 12.4125C42.6962 12.4215 42.7288 12.4369 42.7573 12.4583L42.8845 12.5535C42.9748 12.6215 43.0107 12.7375 42.9739 12.8425C42.9372 12.9478 42.8355 13.0184 42.7211 13.0184C42.6263 13.0186 42.5331 13.0593 42.5093 13.1112C42.4987 13.1347 42.4897 13.182 42.5079 13.2753C42.5275 13.376 42.5634 13.4564 42.6117 13.5076C42.6621 13.5608 42.7463 13.6048 42.8213 13.6421C42.9359 13.6987 43.1003 13.7707 43.2043 13.734C43.2859 13.7053 43.3454 13.5828 43.3315 13.4714C43.3138 13.3291 43.4182 13.1999 43.5649 13.1827C43.5836 13.1805 43.6022 13.1803 43.6204 13.1818C43.6431 13.1646 43.6689 13.1509 43.6974 13.1413C43.7264 13.1317 43.7556 13.1271 43.7846 13.1271ZM44.5156 14.4231C44.4345 14.4231 44.3534 14.4114 44.2755 14.3867C44.0167 14.3046 43.8507 14.115 43.7568 13.9707C43.7502 13.9607 43.7439 13.9507 43.7379 13.9406C43.653 14.0697 43.5312 14.1712 43.3861 14.222C43.0898 14.3257 42.7989 14.2137 42.578 14.1043C42.4614 14.0466 42.3276 13.9751 42.217 13.8581C42.1002 13.734 42.0209 13.5704 41.9823 13.3719C41.9463 13.1886 41.9589 13.0343 42.0207 12.8998C42.049 12.8381 42.0881 12.7817 42.1355 12.7322C42.036 12.6588 41.9531 12.5699 41.8933 12.4694C41.7352 12.2044 41.7484 11.8723 41.9263 11.6426C41.9931 11.5567 42.0813 11.4842 42.1957 11.4214C42.507 11.2503 42.8779 11.227 43.1871 11.3589C43.3072 11.4103 43.4135 11.4844 43.5013 11.5739C43.5795 11.4589 43.6813 11.3687 43.8026 11.3103C43.985 11.2231 44.2036 11.2096 44.435 11.271C44.6935 11.3395 44.9123 11.4855 45.0509 11.6823C45.2122 11.9106 45.2542 12.2051 45.161 12.4502C45.1235 12.5487 45.0642 12.6403 44.9885 12.7196C45.0186 12.7423 45.0469 12.7669 45.0734 12.7935C45.2194 12.9399 45.3097 13.1402 45.3412 13.3893C45.374 13.6477 45.33 13.8788 45.214 14.0575C45.0658 14.2867 44.791 14.4231 44.5156 14.4231Z" fill="#1A1919"/>
<path fill-rule="evenodd" clip-rule="evenodd" d="M43.9585 13.0779C43.7959 13.3397 43.445 13.4238 43.1752 13.2658C42.9056 13.108 42.8187 12.7678 42.9815 12.5061C43.1444 12.2444 43.4951 12.1603 43.7649 12.3183C44.0345 12.476 44.1214 12.8162 43.9585 13.0779Z" fill="#F5D93B"/>
<path fill-rule="evenodd" clip-rule="evenodd" d="M43.472 12.4983C43.3693 12.4983 43.2691 12.5488 43.212 12.6402C43.1705 12.7073 43.1581 12.7864 43.1775 12.8627C43.197 12.9387 43.246 13.0032 43.3152 13.0438C43.4583 13.1272 43.6447 13.0828 43.7312 12.9439C43.7728 12.8766 43.7851 12.7977 43.7658 12.7214C43.7462 12.6454 43.6975 12.5809 43.6283 12.5403C43.5793 12.5118 43.5254 12.4983 43.472 12.4983ZM43.4704 13.6047C43.3228 13.6047 43.1736 13.567 43.0388 13.4881C42.643 13.2565 42.5154 12.7559 42.754 12.3721C42.8699 12.186 43.0532 12.055 43.2705 12.0027C43.4879 11.9509 43.7132 11.9838 43.9046 12.096C44.3002 12.3276 44.4278 12.8282 44.1892 13.212C44.1892 13.212 44.1892 13.212 44.1892 13.2122C44.032 13.4648 43.7543 13.6047 43.4704 13.6047Z" fill="#1A1919"/>
<path fill-rule="evenodd" clip-rule="evenodd" d="M36.9072 10.5657C37.4364 10.5661 37.9587 10.8248 38.2697 11.2402C38.3923 10.9972 38.5709 10.7808 38.7881 10.6112L38.8102 10.6289C38.8978 10.9157 38.9703 11.2114 38.96 11.5104C38.9497 11.8094 38.8479 12.1149 38.6286 12.3252C38.4096 12.5357 38.0612 12.6305 37.7788 12.5105C37.6622 12.4608 37.5629 12.3795 37.4737 12.2917C36.984 11.81 36.8339 11.2273 36.9072 10.5657Z" fill="#E75821"/>
<path fill-rule="evenodd" clip-rule="evenodd" d="M37.1582 10.8475C37.1515 11.3599 37.3159 11.765 37.6652 12.1089C37.7495 12.1915 37.8198 12.2434 37.8872 12.2721C38.0546 12.3432 38.288 12.2876 38.4416 12.1403C38.5926 11.9954 38.6847 11.7622 38.6937 11.5011C38.6982 11.3719 38.6845 11.2422 38.6604 11.1141C38.6034 11.1897 38.5533 11.2699 38.5106 11.3538C38.4695 11.4355 38.3868 11.4902 38.2934 11.498C38.1981 11.5048 38.1091 11.4656 38.0541 11.3919C37.842 11.1084 37.5127 10.9116 37.1582 10.8475ZM38.0449 12.8209C37.9159 12.8209 37.7888 12.7969 37.6724 12.7476C37.4997 12.6742 37.368 12.5556 37.284 12.4731C36.7646 11.9622 36.5546 11.3289 36.6424 10.5374C36.6568 10.4056 36.7716 10.3055 36.9082 10.3055H36.9084C37.3925 10.306 37.8712 10.4925 38.2287 10.8076C38.3412 10.6588 38.4737 10.5237 38.6216 10.4084C38.7204 10.3317 38.861 10.3323 38.9585 10.4097L38.9805 10.4274C39.0223 10.4603 39.0524 10.5047 39.0679 10.5546C39.1537 10.8373 39.2402 11.1729 39.2286 11.5185C39.2144 11.9167 39.0688 12.2684 38.8179 12.5092C38.6076 12.711 38.3217 12.8209 38.0449 12.8209Z" fill="#1A1919"/>
<path fill-rule="evenodd" clip-rule="evenodd" d="M20.7809 49.5463C21.1488 49.5463 21.2508 49.4653 21.2508 49.2024C21.2508 48.9999 21.1692 48.8787 20.7605 48.8787H20.2496V49.5463H20.7809ZM16.5098 46.3901H20.7093C23.2742 46.3901 24.2754 47.1994 24.2754 48.8179C24.2754 50.3757 23.3252 51.185 20.9954 51.185H20.2496V53.0464H16.5098V46.3901Z" fill="#1A1919"/>
<path fill-rule="evenodd" clip-rule="evenodd" d="M25.3848 46.3901H29.3449V50.3555H32.041V53.0464H25.3848V46.3901Z" fill="#1A1919"/>
<path fill-rule="evenodd" clip-rule="evenodd" d="M37.6538 50.8409L37.2151 49.3439H37.1494L36.6781 50.8409H37.6538ZM38.0375 52.1764H36.2613L35.9875 53.0464H32.041L34.935 46.3901H40.2407L43.1348 53.0464H38.2895L38.0375 52.1764Z" fill="#1A1919"/>
<path fill-rule="evenodd" clip-rule="evenodd" d="M43.9354 49.0809H42.0264V46.3901H49.792V49.0809H47.883V53.0464H43.9354V49.0809Z" fill="#1A1919"/>
<mask id="mask1_10001_14290" style="mask-type:alpha" maskUnits="userSpaceOnUse" x="50" y="46" width="17" height="8">
<path d="M50.1373 46.3902H66.82V53.3254H50.1373V46.3902Z" fill="white"/>
</mask>
<g mask="url(#mask1_10001_14290)">
<path fill-rule="evenodd" clip-rule="evenodd" d="M50.1371 46.5129H56.8043V49.0186H53.9799V49.5482H56.0694V50.9944H53.9799V53.215H50.1371V46.5129Z" fill="#1A1919"/>
<path fill-rule="evenodd" clip-rule="evenodd" d="M62.7656 49.8431C62.7656 49.2016 62.5136 48.8961 62.0202 48.8961C61.5372 48.8961 61.2748 49.2016 61.2748 49.8431C61.2748 50.5664 61.5372 50.8312 62.0202 50.8312C62.5136 50.8312 62.7656 50.5664 62.7656 49.8431ZM57.222 49.823C57.222 47.8775 58.6708 46.3904 62.0202 46.3904C65.3695 46.3904 66.8183 47.8775 66.8183 49.823C66.8183 51.8396 65.485 53.3369 62.0202 53.3369C58.6605 53.3369 57.222 51.9415 57.222 49.823Z" fill="#1A1919"/>
</g>
<path fill-rule="evenodd" clip-rule="evenodd" d="M71.453 49.6473C71.7748 49.6473 71.8921 49.5059 71.8921 49.2732C71.8921 49.0304 71.7945 48.8787 71.4337 48.8787H71.1118V49.6473H71.453ZM67.541 46.3901H71.5311C74.4384 46.3901 75.3067 47.2398 75.3067 48.4942C75.3067 49.1518 75.0335 49.8396 73.9897 50.0721V50.0923C75.1019 50.2745 75.3067 50.9522 75.3067 51.6199V53.0464H71.736V51.4076C71.736 51.0838 71.5798 50.9825 71.3361 50.9825H71.1118V53.0464H67.541V46.3901Z" fill="#1A1919"/>
<path fill-rule="evenodd" clip-rule="evenodd" d="M76.5254 46.3901H81.5367L81.879 48.049H81.8884L82.2309 46.3901H86.5098V53.0464H83.0297L83.0674 49.8093H83.0582L82.2687 53.0464H80.0058L79.2165 49.8093H79.207L79.2449 53.0464H76.5254V46.3901Z" fill="#1A1919"/>
</svg>
